<svg viewBox="0 0 1024 1067.908" xmlns="http://www.w3.org/2000/svg"><path d="M381.383 21.333h261.234c90.696.104 164.192 73.6 164.295 164.285v468.774H217.088V185.628c.094-45.497 18.544-86.666 48.335-116.51h-.002c29.54-29.525 70.342-47.787 115.408-47.787.195 0 .39 0 .585.002h-.03zm357.262 564.793V185.628c-.052-53.014-43.014-95.977-96.023-96.028H381.194c-26.39 0-50.282 10.696-67.577 27.99-17.403 17.427-28.188 41.467-28.262 68.025v400.512zM0 412.273h285.355v186.14c0 78.8-63.88 142.677-142.677 142.677S0 677.21 0 598.413zm217.088 68.267H68.268v117.874c0 41.096 33.314 74.41 74.41 74.41s74.41-33.314 74.41-74.41zm521.102-68.267H1024v186.14c0 78.924-63.98 142.905-142.905 142.905S738.19 677.338 738.19 598.413zm217.543 68.267H806.457v117.874c0 41.222 33.417 74.638 74.638 74.638s74.638-33.417 74.638-74.638zM767.317 870.115H255.772c-69.09-.078-125.078-56.065-125.156-125.148v-.007c.03-21.49 5.294-41.742 14.585-59.56l-.34.715 60.713 31.22c-4.2 8.03-6.673 17.538-6.69 27.62v.007c.026 31.408 25.48 56.863 56.886 56.89h511.546c31.408-.027 56.863-25.48 56.89-56.887v-.003c-.018-10.088-2.49-19.596-6.85-27.962l.16.336 60.71-31.22c8.952 17.103 14.216 37.356 14.246 58.835v.01c-.078 69.09-56.065 125.078-125.148 125.156h-.007zm5.462-215.722H251.22v-28.626l-28.626-24.576 12.925-15.11h552.96l12.972 15.11-28.626 24.577zM329.044 1011.2h-68.267V837.348h68.267zm434.176 0h-68.266V837.348h68.267zm-381.382 34.133H207.986v-68.267h173.852zm434.176 0H642.162v-68.267h173.852z"/></svg>